# Blender v2.82 (sub 7) OBJ File: 'tempBG.blend'
# www.blender.org
mtllib tempBG.mtl
o Cube
v 23.012531 -4.033690 -886.304077
v 23.012531 -9.588791 -886.304077
v 23.012531 -4.033690 489.439484
v 23.012531 -9.588791 489.439484
v -207.310532 -4.033690 -886.304077
v -207.310532 -9.588791 -886.304077
v -207.310532 -4.033690 489.439484
v -207.310532 -9.588791 489.439484
vt 0.625000 0.500000
vt 0.875000 0.500000
vt 0.875000 0.750000
vt 0.625000 0.750000
vt 0.375000 0.750000
vt 0.625000 1.000000
vt 0.375000 1.000000
vt 0.375000 0.000000
vt 0.625000 0.000000
vt 0.625000 0.250000
vt 0.375000 0.250000
vt 0.125000 0.500000
vt 0.375000 0.500000
vt 0.125000 0.750000
vn 0.0000 1.0000 0.0000
vn 0.0000 0.0000 1.0000
vn -1.0000 0.0000 0.0000
vn 0.0000 -1.0000 0.0000
vn 1.0000 0.0000 0.0000
vn 0.0000 0.0000 -1.0000
usemtl Material
s off
f 1/1/1 5/2/1 7/3/1 3/4/1
f 4/5/2 3/4/2 7/6/2 8/7/2
f 8/8/3 7/9/3 5/10/3 6/11/3
f 6/12/4 2/13/4 4/5/4 8/14/4
f 2/13/5 1/1/5 3/4/5 4/5/5
f 6/11/6 5/10/6 1/1/6 2/13/6
o Cube.001
v -25.940500 191.380493 -18.812729
v -25.940500 -9.588791 -18.812729
v -25.940500 191.380493 240.703247
v -25.940500 -9.588791 240.703247
v -178.732208 191.380493 -18.812729
v -178.732208 -9.588791 -18.812729
v -178.732208 191.380493 240.703247
v -178.732208 -9.588791 240.703247
vt 0.375000 0.750000
vt 0.625000 0.750000
vt 0.625000 1.000000
vt 0.375000 1.000000
vt 0.375000 0.500000
vt 0.625000 0.500000
vt 0.375000 0.250000
vt 0.625000 0.250000
vn 0.0000 0.0000 1.0000
vn 1.0000 0.0000 0.0000
vn 0.0000 0.0000 -1.0000
usemtl Material.001
s off
f 12/15/7 11/16/7 15/17/7 16/18/7
f 10/19/8 9/20/8 11/16/8 12/15/8
f 14/21/9 13/22/9 9/20/9 10/19/9
o Cube.002
v 228.321045 -7.524961 -1110.764648
v 228.321045 -13.080062 -1110.764648
v 228.321045 -7.524961 477.067352
v 228.321045 -13.080062 477.067352
v -76.919250 -7.524961 -1110.764648
v -76.919250 -13.080062 -1110.764648
v -76.919250 -7.524961 477.067352
v -76.919250 -13.080062 477.067352
vt 0.625000 0.500000
vt 0.875000 0.500000
vt 0.875000 0.750000
vt 0.625000 0.750000
vt 0.375000 0.750000
vt 0.625000 1.000000
vt 0.375000 1.000000
vt 0.375000 0.000000
vt 0.625000 0.000000
vt 0.625000 0.250000
vt 0.375000 0.250000
vt 0.125000 0.500000
vt 0.375000 0.500000
vt 0.125000 0.750000
vn 0.0000 1.0000 0.0000
vn 0.0000 0.0000 1.0000
vn -1.0000 0.0000 0.0000
vn 0.0000 -1.0000 0.0000
vn 1.0000 0.0000 0.0000
vn 0.0000 0.0000 -1.0000
usemtl Material.002
s off
f 17/23/10 21/24/10 23/25/10 19/26/10
f 20/27/11 19/26/11 23/28/11 24/29/11
f 24/30/12 23/31/12 21/32/12 22/33/12
f 22/34/13 18/35/13 20/27/13 24/36/13
f 18/35/14 17/23/14 19/26/14 20/27/14
f 22/33/15 21/32/15 17/23/15 18/35/15
o Cube.003
v -25.940500 -9.588791 -291.815979
v -25.940500 160.817215 -30.375305
v -25.940500 -9.588791 -30.375305
v -178.732208 -9.588791 -291.815979
v -178.732208 160.817215 -30.375305
v -178.732208 -9.588791 -30.375305
v -25.940506 163.994110 -289.271759
v -25.940506 168.479233 -266.196960
v -178.732208 168.479233 -266.196960
v -178.732208 163.994110 -289.271759
vt 0.375000 0.750000
vt 0.625000 0.750000
vt 0.625000 1.000000
vt 0.375000 1.000000
vt 0.625000 0.526931
vt 0.875000 0.526931
vt 0.875000 0.750000
vt 0.375000 0.500000
vt 0.623840 0.500000
vt 0.625000 0.500000
vt 0.875000 0.500000
vt 0.375000 0.250000
vt 0.623840 0.250000
vn 0.0000 0.0000 1.0000
vn 0.0000 0.9995 0.0325
vn 1.0000 0.0000 -0.0000
vn 0.0000 0.9816 -0.1908
vn 0.0000 0.0147 -0.9999
usemtl Material.003
s off
f 27/37/16 26/38/16 29/39/16 30/40/16
f 32/41/17 33/42/17 29/43/17 26/38/17
f 25/44/18 31/45/18 32/41/18 26/38/18 27/37/18
f 33/42/19 32/41/19 31/46/19 34/47/19
f 28/48/20 34/49/20 31/45/20 25/44/20
o Cube.004
v -8.999477 -4.322767 23.511839
v -26.460171 67.010559 15.736363
v -4.914166 -4.322767 14.337822
v -22.374859 67.010559 6.562346
v -7.608836 -3.914869 24.131111
v -25.069530 67.418457 16.355635
v -3.523525 -3.914869 14.957093
v -20.984219 67.418457 7.181618
vt 0.375000 0.000000
vt 0.625000 0.000000
vt 0.625000 0.250000
vt 0.375000 0.250000
vt 0.625000 0.500000
vt 0.375000 0.500000
vt 0.625000 0.750000
vt 0.375000 0.750000
vt 0.625000 1.000000
vt 0.375000 1.000000
vt 0.125000 0.500000
vt 0.125000 0.750000
vt 0.875000 0.500000
vt 0.875000 0.750000
vn -0.8824 -0.2588 -0.3929
vn 0.4068 0.0000 -0.9135
vn 0.8824 0.2588 0.3929
vn -0.4068 -0.0000 0.9135
vn 0.2364 -0.9659 0.1053
vn -0.2364 0.9659 -0.1053
usemtl None
s off
f 35/50/21 36/51/21 38/52/21 37/53/21
f 37/53/22 38/52/22 42/54/22 41/55/22
f 41/55/23 42/54/23 40/56/23 39/57/23
f 39/57/24 40/56/24 36/58/24 35/59/24
f 37/60/25 41/55/25 39/57/25 35/61/25
f 42/54/26 38/62/26 36/63/26 40/56/26
o Cube.005
v -177.785538 249.581863 -232.000732
v -177.785538 -10.404452 -232.000732
v -177.785538 249.581863 27.515244
v -177.785538 -10.404452 27.515244
v -330.577271 249.581863 -232.000732
v -330.577271 -10.404452 -232.000732
v -330.577271 249.581863 27.515244
v -330.577271 -10.404452 27.515244
vt 0.375000 0.750000
vt 0.625000 0.750000
vt 0.625000 1.000000
vt 0.375000 1.000000
vt 0.375000 0.500000
vt 0.625000 0.500000
vt 0.375000 0.250000
vt 0.625000 0.250000
vn 0.0000 0.0000 1.0000
vn 1.0000 0.0000 0.0000
vn 0.0000 0.0000 -1.0000
usemtl Material.004
s off
f 46/64/27 45/65/27 49/66/27 50/67/27
f 44/68/28 43/69/28 45/65/28 46/64/28
f 48/70/29 47/71/29 43/69/29 44/68/29
o Cube.006
v -257.814514 349.416870 -75.358315
v -257.814514 -11.803587 -75.358315
v -257.814514 349.416870 184.157654
v -257.814514 -11.803587 184.157654
v -410.606232 349.416870 -75.358315
v -410.606232 -11.803587 -75.358315
v -410.606232 349.416870 184.157654
v -410.606232 -11.803587 184.157654
vt 0.375000 0.750000
vt 0.625000 0.750000
vt 0.625000 1.000000
vt 0.375000 1.000000
vt 0.375000 0.500000
vt 0.625000 0.500000
vt 0.375000 0.250000
vt 0.625000 0.250000
vn 0.0000 0.0000 1.0000
vn 1.0000 0.0000 0.0000
vn 0.0000 0.0000 -1.0000
usemtl Material.005
s off
f 54/72/30 53/73/30 57/74/30 58/75/30
f 52/76/31 51/77/31 53/73/31 54/72/31
f 56/78/32 55/79/32 51/77/32 52/76/32
o Cube.007
v -265.818176 306.992859 195.062805
v -265.818176 -11.209037 195.062805
v -265.818176 306.992859 454.578796
v -265.818176 -11.209037 454.578796
v -418.609894 306.992859 195.062805
v -418.609894 -11.209037 195.062805
v -418.609894 306.992859 454.578796
v -418.609894 -11.209037 454.578796
vt 0.375000 0.750000
vt 0.625000 0.750000
vt 0.625000 1.000000
vt 0.375000 1.000000
vt 0.375000 0.500000
vt 0.625000 0.500000
vt 0.375000 0.250000
vt 0.625000 0.250000
vn 0.0000 0.0000 1.0000
vn 1.0000 0.0000 0.0000
vn 0.0000 0.0000 -1.0000
usemtl Material.006
s off
f 62/80/33 61/81/33 65/82/33 66/83/33
f 60/84/34 59/85/34 61/81/34 62/80/34
f 64/86/35 63/87/35 59/85/35 60/84/35
o Cube.008
v -205.828857 286.711975 -344.032776
v -205.828857 26.725651 -344.032776
v -205.828857 286.711975 -84.516800
v -205.828857 26.725651 -84.516800
v -358.620575 286.711975 -344.032776
v -358.620575 26.725651 -344.032776
v -358.620575 286.711975 -84.516800
v -358.620575 26.725651 -84.516800
vt 0.375000 0.750000
vt 0.625000 0.750000
vt 0.625000 1.000000
vt 0.375000 1.000000
vt 0.375000 0.500000
vt 0.625000 0.500000
vt 0.375000 0.250000
vt 0.625000 0.250000
vn 0.0000 0.0000 1.0000
vn 1.0000 0.0000 0.0000
vn 0.0000 0.0000 -1.0000
usemtl Material.007
s off
f 70/88/36 69/89/36 73/90/36 74/91/36
f 68/92/37 67/93/37 69/89/37 70/88/37
f 72/94/38 71/95/38 67/93/38 68/92/38
o Cube.009
v -25.940500 -9.588791 -565.401001
v -25.940500 -9.588791 -303.960358
v -178.732208 -9.588791 -303.960358
v -25.940506 163.994110 -562.856812
v -25.940506 177.522461 -539.297424
v -178.732208 177.522461 -539.297424
v -25.940506 172.579453 -314.293091
v -25.940506 167.006363 -304.177032
v -178.732208 167.006363 -304.177032
v -178.732208 172.579422 -314.293091
vt 0.625000 0.526931
vt 0.875000 0.526931
vt 0.875000 0.739106
vt 0.625000 0.739106
vt 0.375000 0.750000
vt 0.624291 0.750000
vt 0.624291 1.000000
vt 0.375000 1.000000
vt 0.875000 0.750000
vt 0.625000 0.750000
vt 0.375000 0.500000
vt 0.623840 0.500000
vn -0.0000 0.9998 0.0220
vn 0.0000 0.0012 1.0000
vn -0.0000 0.8759 0.4825
vn 1.0000 0.0000 -0.0000
usemtl Material.008
s off
f 79/96/39 80/97/39 84/98/39 81/99/39
f 76/100/40 82/101/40 83/102/40 77/103/40
f 81/99/41 84/98/41 83/104/41 82/105/41
f 75/106/42 78/107/42 79/96/42 81/99/42 82/101/42 76/100/42
o Cube.010
v -195.694061 306.992859 -620.853455
v -195.694061 -11.209037 -620.853455
v -195.694061 306.992859 -361.337524
v -195.694061 -11.209037 -361.337524
v -348.485779 306.992859 -620.853455
v -348.485779 -11.209037 -620.853455
v -348.485779 306.992859 -361.337524
v -348.485779 -11.209037 -361.337524
vt 0.375000 0.750000
vt 0.625000 0.750000
vt 0.625000 1.000000
vt 0.375000 1.000000
vt 0.375000 0.500000
vt 0.625000 0.500000
vt 0.375000 0.250000
vt 0.625000 0.250000
vn 0.0000 0.0000 1.0000
vn 1.0000 0.0000 0.0000
vn 0.0000 0.0000 -1.0000
usemtl Material.009
s off
f 88/108/43 87/109/43 91/110/43 92/111/43
f 86/112/44 85/113/44 87/109/44 88/108/44
f 90/114/45 89/115/45 85/113/45 86/112/45
o Cube.011
v -25.940500 191.380493 252.280182
v -25.940500 -9.588791 252.280182
v -25.940500 191.380493 511.796143
v -25.940500 -9.588791 511.796143
v -178.732208 191.380493 252.280182
v -178.732208 -9.588791 252.280182
v -178.732208 191.380493 511.796143
v -178.732208 -9.588791 511.796143
vt 0.375000 0.750000
vt 0.625000 0.750000
vt 0.625000 1.000000
vt 0.375000 1.000000
vt 0.375000 0.500000
vt 0.625000 0.500000
vt 0.375000 0.250000
vt 0.625000 0.250000
vn 0.0000 0.0000 1.0000
vn 1.0000 0.0000 0.0000
vn 0.0000 0.0000 -1.0000
usemtl Material.010
s off
f 96/116/46 95/117/46 99/118/46 100/119/46
f 94/120/47 93/121/47 95/117/47 96/116/47
f 98/122/48 97/123/48 93/121/48 94/120/48
o Cylinder
v -21.102678 -3.935000 85.009773
v -21.102678 3.935000 85.009773
v -20.045162 -3.935000 85.234550
v -20.045162 3.935000 85.234550
v -19.170502 -3.935000 85.870033
v -19.170502 3.935000 85.870033
v -18.629932 -3.935000 86.806328
v -18.629932 3.935000 86.806328
v -18.516922 -3.935000 87.881546
v -18.516922 3.935000 87.881546
v -18.851013 -3.935000 88.909775
v -18.851013 3.935000 88.909775
v -19.574436 -3.935000 89.713219
v -19.574436 3.935000 89.713219
v -20.562109 -3.935000 90.152954
v -20.562109 3.935000 90.152954
v -21.643250 -3.935000 90.152954
v -21.643250 3.935000 90.152954
v -22.630920 -3.935000 89.713219
v -22.630920 3.935000 89.713219
v -23.354343 -3.935000 88.909775
v -23.354343 3.935000 88.909775
v -23.688435 -3.935000 87.881546
v -23.688435 3.935000 87.881546
v -23.575424 -3.935000 86.806328
v -23.575424 3.935000 86.806328
v -23.034855 -3.935000 85.870033
v -23.034855 3.935000 85.870033
v -22.160192 -3.935000 85.234550
v -22.160192 3.935000 85.234550
vt 0.347617 0.469251
vt 0.250000 0.490000
vt 0.152383 0.469251
vt 0.071645 0.410591
vt 0.021746 0.324164
vt 0.011315 0.224913
vt 0.042154 0.130000
vt 0.108932 0.055836
vt 0.200101 0.015245
vt 0.299899 0.015245
vt 0.391068 0.055836
vt 0.457846 0.130000
vt 0.488685 0.224913
vt 0.478254 0.324164
vt 0.428355 0.410591
vt 1.000000 0.500000
vt 1.000000 1.000000
vt 0.933333 1.000000
vt 0.933333 0.500000
vt 0.866667 1.000000
vt 0.866667 0.500000
vt 0.800000 1.000000
vt 0.800000 0.500000
vt 0.733333 1.000000
vt 0.733333 0.500000
vt 0.666667 1.000000
vt 0.666667 0.500000
vt 0.600000 1.000000
vt 0.600000 0.500000
vt 0.533333 1.000000
vt 0.533333 0.500000
vt 0.466667 1.000000
vt 0.466667 0.500000
vt 0.400000 1.000000
vt 0.400000 0.500000
vt 0.333333 1.000000
vt 0.333333 0.500000
vt 0.266667 1.000000
vt 0.266667 0.500000
vt 0.200000 1.000000
vt 0.200000 0.500000
vt 0.133333 1.000000
vt 0.133333 0.500000
vt 0.066667 1.000000
vt 0.066667 0.500000
vt 0.000000 1.000000
vt 0.000000 0.500000
vt 0.750000 0.490000
vt 0.847617 0.469251
vt 0.928355 0.410591
vt 0.978254 0.324164
vt 0.988685 0.224913
vt 0.957846 0.130000
vt 0.891068 0.055836
vt 0.799899 0.015245
vt 0.700101 0.015245
vt 0.608932 0.055836
vt 0.542154 0.130000
vt 0.511315 0.224913
vt 0.521746 0.324164
vt 0.571645 0.410591
vt 0.652383 0.469251
vn 0.0000 1.0000 0.0000
vn 0.0000 -0.6632 -0.7485
vn 0.0000 0.6632 -0.7485
vn 0.3044 0.6631 -0.6837
vn 0.3044 -0.6631 -0.6837
vn 0.5562 0.6631 -0.5008
vn 0.5562 -0.6631 -0.5008
vn 0.7118 0.6632 -0.2313
vn 0.7118 -0.6632 -0.2313
vn 0.7443 0.6631 0.0782
vn 0.7443 -0.6631 0.0782
vn 0.6482 0.6631 0.3742
vn 0.6482 -0.6631 0.3742
vn 0.4399 0.6631 0.6055
vn 0.4399 -0.6631 0.6055
vn 0.1556 0.6632 0.7321
vn 0.1556 -0.6632 0.7321
vn -0.1556 0.6632 0.7321
vn -0.1556 -0.6632 0.7321
vn -0.4399 0.6631 0.6055
vn -0.4399 -0.6631 0.6055
vn -0.6482 0.6631 0.3742
vn -0.6482 -0.6631 0.3742
vn -0.7443 0.6631 0.0782
vn -0.7443 -0.6631 0.0782
vn -0.7118 0.6632 -0.2313
vn -0.7118 -0.6632 -0.2313
vn -0.5562 0.6631 -0.5008
vn -0.5562 -0.6631 -0.5008
vn -0.3044 0.6631 -0.6837
vn -0.3044 -0.6631 -0.6837
usemtl None
s off
f 104/124/49 102/125/49 130/126/49 128/127/49 126/128/49 124/129/49 122/130/49 120/131/49 118/132/49 116/133/49 114/134/49 112/135/49 110/136/49 108/137/49 106/138/49
s 1
f 101/139/50 102/140/51 104/141/52 103/142/53
f 103/142/53 104/141/52 106/143/54 105/144/55
f 105/144/55 106/143/54 108/145/56 107/146/57
f 107/146/57 108/145/56 110/147/58 109/148/59
f 109/148/59 110/147/58 112/149/60 111/150/61
f 111/150/61 112/149/60 114/151/62 113/152/63
f 113/152/63 114/151/62 116/153/64 115/154/65
f 115/154/65 116/153/64 118/155/66 117/156/67
f 117/156/67 118/155/66 120/157/68 119/158/69
f 119/158/69 120/157/68 122/159/70 121/160/71
f 121/160/71 122/159/70 124/161/72 123/162/73
f 123/162/73 124/161/72 126/163/74 125/164/75
f 125/164/75 126/163/74 128/165/76 127/166/77
f 127/166/77 128/165/76 130/167/78 129/168/79
f 129/168/79 130/167/78 102/169/51 101/170/50
f 101/171/50 103/172/53 105/173/55 107/174/57 109/175/59 111/176/61 113/177/63 115/178/65 117/179/67 119/180/69 121/181/71 123/182/73 125/183/75 127/184/77 129/185/79
o Cylinder.001
v -19.675425 2.451348 96.585648
v -13.639456 2.635542 101.632431
v -18.981899 2.449423 95.756256
v -12.945930 2.633618 100.803047
v -18.340939 2.008047 95.005775
v -12.304970 2.192242 100.052567
v -17.863371 1.203537 94.463966
v -11.827402 1.387732 99.510757
v -17.631771 0.175000 94.224518
v -11.595802 0.359194 99.271301
v -17.686186 -0.899721 94.328819
v -11.650218 -0.715527 99.375603
v -18.017208 -1.834796 94.758850
v -11.981238 -1.650602 99.805634
v -18.567596 -2.468543 95.440247
v -12.531628 -2.284348 100.487030
v -19.242188 -2.691381 96.255188
v -13.206219 -2.507186 101.301979
v -19.924337 -2.464779 97.062775
v -13.888369 -2.280584 102.109558
v -20.496096 -1.827919 97.723351
v -14.460127 -1.643724 102.770142
v -20.858601 -0.890919 98.122711
v -14.822632 -0.706725 103.169502
v -20.949171 0.184204 98.191795
v -14.913202 0.368398 103.238586
v -20.752148 1.211552 97.918663
v -14.716179 1.395747 102.965446
v -20.301598 2.013487 97.350533
v -14.265629 2.197682 102.397316
vt 0.347617 0.469251
vt 0.250000 0.490000
vt 0.152383 0.469251
vt 0.071645 0.410591
vt 0.021746 0.324164
vt 0.011315 0.224913
vt 0.042154 0.130000
vt 0.108932 0.055836
vt 0.200101 0.015245
vt 0.299899 0.015245
vt 0.391068 0.055836
vt 0.457846 0.130000
vt 0.488685 0.224913
vt 0.478254 0.324164
vt 0.428355 0.410591
vt 1.000000 0.500000
vt 1.000000 1.000000
vt 0.933333 1.000000
vt 0.933333 0.500000
vt 0.866667 1.000000
vt 0.866667 0.500000
vt 0.800000 1.000000
vt 0.800000 0.500000
vt 0.733333 1.000000
vt 0.733333 0.500000
vt 0.666667 1.000000
vt 0.666667 0.500000
vt 0.600000 1.000000
vt 0.600000 0.500000
vt 0.533333 1.000000
vt 0.533333 0.500000
vt 0.466667 1.000000
vt 0.466667 0.500000
vt 0.400000 1.000000
vt 0.400000 0.500000
vt 0.333333 1.000000
vt 0.333333 0.500000
vt 0.266667 1.000000
vt 0.266667 0.500000
vt 0.200000 1.000000
vt 0.200000 0.500000
vt 0.133333 1.000000
vt 0.133333 0.500000
vt 0.066667 1.000000
vt 0.066667 0.500000
vt 0.000000 1.000000
vt 0.000000 0.500000
vt 0.750000 0.490000
vt 0.847617 0.469251
vt 0.928355 0.410591
vt 0.978254 0.324164
vt 0.988685 0.224913
vt 0.957846 0.130000
vt 0.891068 0.055836
vt 0.799899 0.015245
vt 0.700101 0.015245
vt 0.608932 0.055836
vt 0.542154 0.130000
vt 0.511315 0.224913
vt 0.521746 0.324164
vt 0.571645 0.410591
vt 0.652383 0.469251
vn 0.7670 0.0234 0.6413
vn -0.6207 0.7167 -0.3179
vn 0.3965 0.7477 0.5326
vn 0.5961 0.7472 0.2939
vn -0.4211 0.7161 -0.5566
vn 0.7806 0.6201 0.0779
vn -0.2366 0.5890 -0.7727
vn 0.9181 0.3885 -0.0781
vn -0.0991 0.3574 -0.9286
vn 0.9848 0.0924 -0.1470
vn -0.0324 0.0613 -0.9976
vn 0.9691 -0.2170 -0.1170
vn -0.0481 -0.2480 -0.9676
vn 0.8738 -0.4861 0.0067
vn -0.1434 -0.5172 -0.8437
vn 0.7154 -0.6686 0.2029
vn -0.3018 -0.6996 -0.6476
vn 0.5212 -0.7327 0.4375
vn -0.4960 -0.7638 -0.4130
vn 0.3248 -0.6675 0.6700
vn -0.6924 -0.6985 -0.1805
vn 0.1602 -0.4842 0.8602
vn -0.8570 -0.5152 0.0096
vn 0.0559 -0.2144 0.9751
vn -0.9613 -0.2455 0.1246
vn 0.0298 0.0950 0.9950
vn -0.9874 0.0640 0.1445
vn 0.0865 0.3908 0.9164
vn -0.9307 0.3598 0.0659
vn 0.2162 0.6217 0.7528
vn -0.8010 0.5906 -0.0977
usemtl None
s off
f 134/186/80 132/187/80 160/188/80 158/189/80 156/190/80 154/191/80 152/192/80 150/193/80 148/194/80 146/195/80 144/196/80 142/197/80 140/198/80 138/199/80 136/200/80
s 1
f 131/201/81 132/202/82 134/203/83 133/204/84
f 133/204/84 134/203/83 136/205/85 135/206/86
f 135/206/86 136/205/85 138/207/87 137/208/88
f 137/208/88 138/207/87 140/209/89 139/210/90
f 139/210/90 140/209/89 142/211/91 141/212/92
f 141/212/92 142/211/91 144/213/93 143/214/94
f 143/214/94 144/213/93 146/215/95 145/216/96
f 145/216/96 146/215/95 148/217/97 147/218/98
f 147/218/98 148/217/97 150/219/99 149/220/100
f 149/220/100 150/219/99 152/221/101 151/222/102
f 151/222/102 152/221/101 154/223/103 153/224/104
f 153/224/104 154/223/103 156/225/105 155/226/106
f 155/226/106 156/225/105 158/227/107 157/228/108
f 157/228/108 158/227/107 160/229/109 159/230/110
f 159/230/110 160/229/109 132/231/82 131/232/81
f 131/233/81 133/234/84 135/235/86 137/236/88 139/237/90 141/238/92 143/239/94 145/240/96 147/241/98 149/242/100 151/243/102 153/244/104 155/245/106 157/246/108 159/247/110
o Cylinder.002
v -12.299752 2.451348 -173.009567
v -8.059163 2.635542 -179.636810
v -13.210393 2.449423 -173.592316
v -8.969805 2.633618 -180.219559
v -14.036098 2.008047 -174.132935
v -9.795510 2.192242 -180.760178
v -14.634096 1.203537 -174.537933
v -10.393508 1.387732 -181.165176
v -14.900988 0.175000 -174.737289
v -10.660399 0.359194 -181.364532
v -14.790625 -0.899721 -174.696548
v -10.550035 -0.715526 -181.323792
v -14.322088 -1.834796 -174.422729
v -10.081500 -1.650602 -181.049973
v -13.576395 -2.468543 -173.963196
v -9.335807 -2.284348 -180.590439
v -12.682482 -2.691381 -173.397400
v -8.441893 -2.507186 -180.024643
v -11.794912 -2.464779 -172.823166
v -7.554324 -2.280584 -179.450424
v -11.067158 -1.827919 -172.339798
v -6.826569 -1.643724 -178.967041
v -10.625051 -0.890919 -172.030869
v -6.384463 -0.706724 -178.658112
v -10.545040 0.184204 -171.949783
v -6.304451 0.368399 -178.577042
v -10.840956 1.211552 -172.110580
v -6.600367 1.395747 -178.737823
v -11.461634 2.013487 -172.485443
v -7.221045 2.197682 -179.112701
vt 0.347617 0.469251
vt 0.250000 0.490000
vt 0.152383 0.469251
vt 0.071645 0.410591
vt 0.021746 0.324164
vt 0.011315 0.224913
vt 0.042154 0.130000
vt 0.108932 0.055836
vt 0.200101 0.015245
vt 0.299899 0.015245
vt 0.391068 0.055836
vt 0.457846 0.130000
vt 0.488685 0.224913
vt 0.478254 0.324164
vt 0.428355 0.410591
vt 1.000000 0.500000
vt 1.000000 1.000000
vt 0.933333 1.000000
vt 0.933333 0.500000
vt 0.866667 1.000000
vt 0.866667 0.500000
vt 0.800000 1.000000
vt 0.800000 0.500000
vt 0.733333 1.000000
vt 0.733333 0.500000
vt 0.666667 1.000000
vt 0.666667 0.500000
vt 0.600000 1.000000
vt 0.600000 0.500000
vt 0.533333 1.000000
vt 0.533333 0.500000
vt 0.466667 1.000000
vt 0.466667 0.500000
vt 0.400000 1.000000
vt 0.400000 0.500000
vt 0.333333 1.000000
vt 0.333333 0.500000
vt 0.266667 1.000000
vt 0.266667 0.500000
vt 0.200000 1.000000
vt 0.200000 0.500000
vt 0.133333 1.000000
vt 0.133333 0.500000
vt 0.066667 1.000000
vt 0.066667 0.500000
vt 0.000000 1.000000
vt 0.000000 0.500000
vt 0.750000 0.490000
vt 0.847617 0.469251
vt 0.928355 0.410591
vt 0.978254 0.324164
vt 0.988685 0.224913
vt 0.957846 0.130000
vt 0.891068 0.055836
vt 0.799899 0.015245
vt 0.700101 0.015245
vt 0.608932 0.055836
vt 0.542154 0.130000
vt 0.511315 0.224913
vt 0.521746 0.324164
vt 0.571645 0.410591
vt 0.652383 0.469251
vn 0.5388 0.0234 -0.8421
vn -0.2366 0.7167 0.6560
vn 0.4781 0.7477 -0.4608
vn 0.2159 0.7472 -0.6286
vn -0.4987 0.7161 0.4883
vn -0.0218 0.6201 -0.7842
vn -0.7364 0.5890 0.3327
vn -0.1939 0.3885 -0.9008
vn -0.9086 0.3574 0.2161
vn -0.2707 0.0924 -0.9582
vn -0.9854 0.0613 0.1587
vn -0.2390 -0.2170 -0.9465
vn -0.9536 -0.2480 0.1704
vn -0.1041 -0.4861 -0.8676
vn -0.8188 -0.5172 0.2492
vn 0.1105 -0.6686 -0.7353
vn -0.6041 -0.6996 0.3815
vn 0.3679 -0.7327 -0.5725
vn -0.3468 -0.7638 0.5444
vn 0.6234 -0.6675 -0.4072
vn -0.0913 -0.6985 0.7097
vn 0.8329 -0.4842 -0.2680
vn 0.1182 -0.5152 0.8488
vn 0.9602 -0.2144 -0.1791
vn 0.2455 -0.2455 0.9378
vn 0.9832 0.0950 -0.1557
vn 0.2685 0.0640 0.9611
vn 0.8980 0.3908 -0.2020
vn 0.1834 0.3598 0.9148
vn 0.7193 0.6216 -0.3099
vn 0.0047 0.5906 0.8069
usemtl None
s off
f 164/248/111 162/249/111 190/250/111 188/251/111 186/252/111 184/253/111 182/254/111 180/255/111 178/256/111 176/257/111 174/258/111 172/259/111 170/260/111 168/261/111 166/262/111
s 1
f 161/263/112 162/264/113 164/265/114 163/266/115
f 163/266/115 164/265/114 166/267/116 165/268/117
f 165/268/117 166/267/116 168/269/118 167/270/119
f 167/270/119 168/269/118 170/271/120 169/272/121
f 169/272/121 170/271/120 172/273/122 171/274/123
f 171/274/123 172/273/122 174/275/124 173/276/125
f 173/276/125 174/275/124 176/277/126 175/278/127
f 175/278/127 176/277/126 178/279/128 177/280/129
f 177/280/129 178/279/128 180/281/130 179/282/131
f 179/282/131 180/281/130 182/283/132 181/284/133
f 181/284/133 182/283/132 184/285/134 183/286/135
f 183/286/135 184/285/134 186/287/136 185/288/137
f 185/288/137 186/287/136 188/289/138 187/290/139
f 187/290/139 188/289/138 190/291/140 189/292/141
f 189/292/141 190/291/140 162/293/113 161/294/112
f 161/295/112 163/296/115 165/297/117 167/298/119 169/299/121 171/300/123 173/301/125 175/302/127 177/303/129 179/304/131 181/305/133 183/306/135 185/307/137 187/308/139 189/309/141
o Cube.012_Cube.013
v -265.818176 363.444794 473.019257
v -265.818176 -12.000180 473.019257
v -265.818176 363.444794 732.535217
v -265.818176 -12.000180 732.535217
v -418.609894 363.444794 473.019257
v -418.609894 -12.000180 473.019257
vt 0.375000 0.500000
vt 0.625000 0.500000
vt 0.625000 0.750000
vt 0.375000 0.750000
vt 0.375000 0.250000
vt 0.625000 0.250000
vn 1.0000 0.0000 0.0000
vn 0.0000 0.0000 -1.0000
usemtl Material.012
s off
f 192/310/142 191/311/142 193/312/142 194/313/142
f 196/314/143 195/315/143 191/311/143 192/310/143
