# Blender v2.82 (sub 7) OBJ File: 'tempBG-texturing2.blend'
# www.blender.org
mtllib tempBG-f.mtl
o Cube.012_Cube.013
v -265.818176 363.444794 473.019257
v -265.818176 -12.000180 473.019257
v -265.818176 363.444794 732.535217
v -265.818176 -12.000180 732.535217
v -418.609894 363.444794 473.019257
v -418.609894 -12.000180 473.019257
v 23.012512 -4.033689 -886.304016
v 23.012512 -9.588791 -886.304016
v 23.012512 -4.033689 489.439514
v 23.012512 -9.588791 489.439514
v -207.310516 -4.033689 -886.304016
v -207.310516 -9.588791 -886.304016
v -207.310516 -4.033689 489.439514
v -207.310516 -9.588791 489.439514
v -25.940521 191.380463 -18.812683
v -25.940521 -9.588791 -18.812683
v -25.940521 191.380463 240.703278
v -25.940521 -9.588791 240.703278
v -178.732208 191.380463 -18.812683
v -178.732208 -9.588791 -18.812683
v -178.732208 191.380463 240.703278
v -178.732208 -9.588791 240.703278
v 228.321014 -7.524960 -1110.764404
v 228.321014 -13.080061 -1110.764404
v 228.321014 -7.524960 477.067383
v 228.321014 -13.080061 477.067383
v -76.919266 -7.524960 -1110.764404
v -76.919266 -13.080061 -1110.764404
v -76.919266 -7.524960 477.067383
v -76.919266 -13.080061 477.067383
v -25.940521 -9.588791 -291.815918
v -25.940521 160.817200 -30.375244
v -25.940521 -9.588791 -30.375244
v -178.732208 -9.588791 -291.815918
v -178.732208 160.817200 -30.375244
v -178.732208 -9.588791 -30.375244
v -25.940521 163.994095 -289.271667
v -25.940521 168.479233 -266.196899
v -178.732208 168.479233 -266.196899
v -178.732208 163.994095 -289.271667
v -8.999481 -4.322769 23.511902
v -26.460190 67.010559 15.736389
v -4.914185 -4.322769 14.337891
v -22.374863 67.010559 6.562378
v -7.608856 -3.914869 24.131104
v -25.069550 67.418457 16.355652
v -3.523529 -3.914869 14.957092
v -20.984222 67.418457 7.181641
v -177.785538 249.581863 -232.000671
v -177.785538 -10.404451 -232.000671
v -177.785538 249.581863 27.515320
v -177.785538 -10.404451 27.515320
v -330.577240 249.581863 -232.000671
v -330.577240 -10.404451 -232.000671
v -330.577240 249.581863 27.515320
v -330.577240 -10.404451 27.515320
v -257.814484 349.416870 -75.358276
v -257.814484 -11.803586 -75.358276
v -257.814484 349.416870 184.157684
v -257.814484 -11.803586 184.157684
v -410.606201 349.416870 -75.358276
v -410.606201 -11.803586 -75.358276
v -410.606201 349.416870 184.157684
v -410.606201 -11.803586 184.157684
v -265.818146 306.992859 195.062897
v -265.818146 -11.209036 195.062897
v -265.818146 306.992859 454.578827
v -265.818146 -11.209036 454.578827
v -418.609863 306.992859 195.062897
v -418.609863 -11.209036 195.062897
v -418.609863 306.992859 454.578827
v -418.609863 -11.209036 454.578827
v -205.828857 286.711945 -344.032654
v -205.828857 26.725647 -344.032654
v -205.828857 286.711945 -84.516724
v -205.828857 26.725647 -84.516724
v -358.620544 286.711945 -344.032654
v -358.620544 26.725647 -344.032654
v -358.620544 286.711945 -84.516724
v -358.620544 26.725647 -84.516724
v -25.940521 -9.588791 -565.400940
v -25.940521 -9.588791 -303.960327
v -178.732208 -9.588791 -303.960327
v -25.940521 163.994095 -562.856873
v -25.940521 177.522461 -539.297424
v -178.732208 177.522461 -539.297424
v -25.940521 172.579437 -314.293091
v -25.940521 167.006363 -304.177063
v -178.732208 167.006363 -304.177063
v -178.732208 172.579407 -314.293091
v -195.694061 306.992859 -620.853455
v -195.694061 -11.209036 -620.853455
v -195.694061 306.992859 -361.337463
v -195.694061 -11.209036 -361.337463
v -348.485748 306.992859 -620.853455
v -348.485748 -11.209036 -620.853455
v -348.485748 306.992859 -361.337463
v -348.485748 -11.209036 -361.337463
v -25.940521 191.380463 252.280243
v -25.940521 -9.588791 252.280243
v -25.940521 191.380463 511.796204
v -25.940521 -9.588791 511.796204
v -178.732208 191.380463 252.280243
v -178.732208 -9.588791 252.280243
v -178.732208 191.380463 511.796204
v -178.732208 -9.588791 511.796204
vt 0.020944 0.789192
vt 0.143428 0.789192
vt 0.143428 0.958519
vt 0.020944 0.958519
vt 0.026015 0.823903
vt 0.143054 0.823903
vt 0.143054 0.917974
vt 0.026015 0.917974
vt 0.065502 0.704327
vt 0.065501 -0.027376
vt 0.879137 -0.027376
vt 0.879136 0.704327
vt 0.641033 0.925890
vt 0.641033 0.930126
vt 0.483307 0.930126
vt 0.483307 0.925890
vt 0.247879 0.600623
vt 0.243032 0.600623
vt 0.243032 0.461420
vt 0.247879 0.461420
vt 0.257260 0.734151
vt 0.257260 0.418688
vt 0.286662 0.418688
vt 0.286662 0.734151
vt 1.045656 0.648712
vt 1.045656 0.619894
vt 0.231259 0.619894
vt 0.231259 0.648712
vt 0.641034 0.921658
vt 0.641033 0.925890
vt 0.483307 0.925890
vt 0.483308 0.921658
vt 0.449994 0.265762
vt 0.449994 0.004972
vt 0.622064 0.004972
vt 0.622064 0.265762
vt 0.632130 0.003862
vt 0.632130 0.277587
vt 0.448420 0.277587
vt 0.448420 0.003862
vt 0.615329 0.005029
vt 0.615329 0.259596
vt 0.445592 0.259596
vt 0.445592 0.005029
vt 1.417470 0.294221
vt 1.417467 0.626018
vt 0.339402 0.626018
vt 0.339402 0.294221
vt 0.483307 0.938595
vt 0.483307 0.934359
vt 0.692337 0.934359
vt 0.692337 0.938595
vt 0.238184 0.622083
vt 0.233337 0.622083
vt 0.233337 0.461420
vt 0.238184 0.461420
vt 0.205578 0.418074
vt 0.205578 0.000000
vt 0.239513 0.000000
vt 0.239513 0.418074
vt 0.837189 0.740768
vt 0.837189 0.756356
vt 0.191808 0.756356
vt 0.191808 0.740768
vt 0.692337 0.930126
vt 0.692336 0.934359
vt 0.483307 0.934359
vt 0.483308 0.930126
vt 0.705315 0.105156
vt 0.705315 0.063289
vt 0.737894 0.063289
vt 0.737894 0.105156
vt 0.840120 0.823685
vt 0.735484 0.823685
vt 0.735484 0.812558
vt 0.840120 0.812558
vt 0.811072 0.003862
vt 0.809340 0.240286
vt 0.793626 0.246395
vt 0.633028 0.235959
vt 0.633028 0.003862
vt 0.504737 0.899504
vt 0.400105 0.899504
vt 0.400102 0.896041
vt 0.504734 0.896041
vt 0.807745 0.168504
vt 0.807745 0.211152
vt 0.775167 0.211152
vt 0.775167 0.168504
vt 0.225569 0.601173
vt 0.225569 0.461420
vt 0.231259 0.466471
vt 0.231259 0.606224
vt 0.174423 0.491513
vt 0.180737 0.321112
vt 0.181609 0.347565
vt 0.178658 0.459983
vt 0.743912 0.882831
vt 0.261183 0.882829
vt 0.243932 0.801267
vt 0.726660 0.801267
vt 0.194456 0.608254
vt 0.195256 0.252441
vt 0.201329 0.191424
vt 0.201329 0.704603
vt 0.953050 0.812346
vt 0.921112 0.812346
vt 0.921112 0.747189
vt 0.953050 0.747189
vt 0.836273 0.539365
vt 0.921090 0.539365
vt 0.921090 0.708691
vt 0.836273 0.708691
vt 0.885482 0.634207
vt 0.917421 0.634207
vt 0.917421 0.699364
vt 0.885482 0.699364
vt 0.888206 0.812346
vt 0.843831 0.812346
vt 0.843831 0.747189
vt 0.888206 0.747189
vt 0.021009 0.423641
vt 0.140402 0.423641
vt 0.140402 0.600719
vt 0.021009 0.600719
vt 0.984547 0.646297
vt 0.984547 0.735046
vt 0.951968 0.735046
vt 0.951968 0.646297
vt 0.920948 0.747189
vt 0.920948 0.825369
vt 0.888369 0.825369
vt 0.888369 0.747189
vt -0.057470 0.607834
vt 0.122686 0.607834
vt 0.122686 0.756233
vt -0.057470 0.756233
vt 0.742901 0.651994
vt 0.703811 0.651994
vt 0.703811 0.586837
vt 0.742901 0.586837
vt 0.953214 0.812346
vt 0.953214 0.748469
vt 0.985793 0.748469
vt 0.985793 0.812346
vt 0.033578 0.246014
vt 0.126146 0.246014
vt 0.126146 0.425416
vt 0.033578 0.425416
vt 0.843831 0.877831
vt 0.875769 0.877831
vt 0.875769 0.942989
vt 0.843831 0.942989
vt 0.840120 0.790373
vt 0.735484 0.790373
vt 0.735484 0.780158
vt 0.840119 0.780158
vt 0.816718 0.243165
vt 0.816718 0.003806
vt 0.996586 0.003806
vt 0.996586 0.243165
vt 0.768460 0.962589
vt 0.663828 0.962589
vt 0.663826 0.958348
vt 0.768458 0.958348
vt 0.997387 0.003862
vt 0.995655 0.240286
vt 0.979611 0.258712
vt 0.826380 0.251979
vt 0.819490 0.244389
vt 0.819343 0.003862
vt 0.021666 0.081297
vt 0.125571 0.081297
vt 0.125571 0.241919
vt 0.021666 0.241919
vt 0.021203 0.075473
vt 0.125011 0.075473
vt 0.125011 0.241311
vt 0.021203 0.241311
vt 0.882921 0.877667
vt 0.843831 0.877667
vt 0.843831 0.812510
vt 0.882921 0.812510
vt 0.888369 0.940230
vt 0.888369 0.890854
vt 0.920948 0.890854
vt 0.920948 0.940230
vt 0.440536 0.003862
vt 0.440536 0.277587
vt 0.263802 0.277587
vt 0.263802 0.003862
vt 0.270752 0.239045
vt 0.270752 0.012216
vt 0.420414 0.012216
vt 0.420414 0.239045
vn 1.0000 0.0000 0.0000
vn 0.0000 0.0000 -1.0000
vn 0.0000 1.0000 0.0000
vn 0.0000 0.0000 1.0000
vn -1.0000 0.0000 0.0000
vn 0.0000 -1.0000 0.0000
vn 0.0000 0.9995 0.0325
vn 0.0000 0.9816 -0.1908
vn 0.0000 0.0147 -0.9999
vn -0.8824 -0.2588 -0.3929
vn 0.4068 -0.0000 -0.9135
vn 0.8824 0.2588 0.3929
vn -0.4068 0.0000 0.9135
vn 0.2364 -0.9659 0.1053
vn -0.2364 0.9659 -0.1053
vn -0.0000 0.9998 0.0220
vn 0.0000 0.0012 1.0000
vn -0.0000 0.8759 0.4825
usemtl testText
s off
f 2/1/1 1/2/1 3/3/1 4/4/1
f 6/5/2 5/6/2 1/7/2 2/8/2
f 7/9/3 11/10/3 13/11/3 9/12/3
f 10/13/4 9/14/4 13/15/4 14/16/4
f 14/17/5 13/18/5 11/19/5 12/20/5
f 12/21/6 8/22/6 10/23/6 14/24/6
f 8/25/1 7/26/1 9/27/1 10/28/1
f 12/29/2 11/30/2 7/31/2 8/32/2
f 18/33/4 17/34/4 21/35/4 22/36/4
f 16/37/1 15/38/1 17/39/1 18/40/1
f 20/41/2 19/42/2 15/43/2 16/44/2
f 23/45/3 27/46/3 29/47/3 25/48/3
f 26/49/4 25/50/4 29/51/4 30/52/4
f 30/53/5 29/54/5 27/55/5 28/56/5
f 28/57/6 24/58/6 26/59/6 30/60/6
f 24/61/1 23/62/1 25/63/1 26/64/1
f 28/65/2 27/66/2 23/67/2 24/68/2
f 33/69/4 32/70/4 35/71/4 36/72/4
f 38/73/7 39/74/7 35/75/7 32/76/7
f 31/77/1 37/78/1 38/79/1 32/80/1 33/81/1
f 39/82/8 38/83/8 37/84/8 40/85/8
f 34/86/9 40/87/9 37/88/9 31/89/9
f 41/90/10 42/91/10 44/92/10 43/93/10
f 43/94/11 44/95/11 48/96/11 47/97/11
f 47/98/12 48/99/12 46/100/12 45/101/12
f 45/102/13 46/103/13 42/104/13 41/105/13
f 43/94/14 47/97/14 45/102/14 41/105/14
f 48/96/15 44/95/15 42/104/15 46/103/15
f 52/106/4 51/107/4 55/108/4 56/109/4
f 50/110/1 49/111/1 51/112/1 52/113/1
f 54/114/2 53/115/2 49/116/2 50/117/2
f 60/118/4 59/119/4 63/120/4 64/121/4
f 58/122/1 57/123/1 59/124/1 60/125/1
f 62/126/2 61/127/2 57/128/2 58/129/2
f 68/130/4 67/131/4 71/132/4 72/133/4
f 66/134/1 65/135/1 67/136/1 68/137/1
f 70/138/2 69/139/2 65/140/2 66/141/2
f 76/142/4 75/143/4 79/144/4 80/145/4
f 74/146/1 73/147/1 75/148/1 76/149/1
f 78/150/2 77/151/2 73/152/2 74/153/2
f 85/154/16 86/155/16 90/156/16 87/157/16
f 82/158/17 88/159/17 89/160/17 83/161/17
f 87/162/18 90/163/18 89/164/18 88/165/18
f 81/166/1 84/167/1 85/168/1 87/169/1 88/170/1 82/171/1
f 94/172/4 93/173/4 97/174/4 98/175/4
f 92/176/1 91/177/1 93/178/1 94/179/1
f 96/180/2 95/181/2 91/182/2 92/183/2
f 102/184/4 101/185/4 105/186/4 106/187/4
f 100/188/1 99/189/1 101/190/1 102/191/1
f 104/192/2 103/193/2 99/194/2 100/195/2
